<svg xmlns="http://www.w3.org/2000/svg" xmlns:xlink="http://www.w3.org/1999/xlink" viewBox="0 0 512 512" width="512" height="512">
  <defs>
    <clipPath id="tile"><rect x="16" y="16" width="480" height="480" rx="108"/></clipPath>
    <pattern id="argyle" width="120" height="160" patternUnits="userSpaceOnUse">
      <rect width="120" height="160" fill="#0A1018"/>
      <polygon points="60,0 120,80 60,160 0,80" fill="#23344A"/>
      <polygon points="0,0 60,80 0,160" fill="#16222F"/>
      <polygon points="120,0 60,80 120,160" fill="#16222F"/>
      <g stroke="#7CA0C8" stroke-width="2" opacity="0.30" stroke-dasharray="6 7">
        <path d="M60 -80 L200 80 M60 -80 L-80 80 M60 80 L200 240 M60 80 L-80 240 M60 240 L200 400 M60 240 L-80 400"/>
      </g>
    </pattern>
  </defs>
  <g clip-path="url(#tile)"><rect x="16" y="16" width="480" height="480" fill="url(#argyle)"/></g>
  <rect x="16" y="16" width="480" height="480" rx="108" fill="none" stroke="#2BD3D3" stroke-width="6"/>
  <g fill="#7CA0C8"><rect x="150" y="168" width="212" height="60" rx="12"/><rect x="150" y="240" width="212" height="60" rx="12" opacity="0.85"/><circle cx="186" cy="198" r="9" fill="#0A1018"/><circle cx="186" cy="270" r="9" fill="#0A1018"/><g fill="none" stroke="#7CA0C8" stroke-width="12" stroke-linecap="round"><path d="M210 330 q46 -34 92 0"/><path d="M236 352 q20 -16 40 0"/></g><circle cx="256" cy="362" r="7" fill="#7CA0C8"/></g>
</svg>
